<?xml version="1.0" standalone="no"?>
<!DOCTYPE svg PUBLIC "-//W3C//DTD SVG 20010904//EN"
 "http://www.w3.org/TR/2001/REC-SVG-20010904/DTD/svg10.dtd">
<svg version="1.0" xmlns="http://www.w3.org/2000/svg"
 width="700.000000pt" height="700.000000pt" viewBox="0 0 700.000000 700.000000"
 preserveAspectRatio="xMidYMid meet">
<metadata>
Created by potrace 1.11, written by Peter Selinger 2001-2013
</metadata>
<g transform="translate(0.000000,700.000000) scale(0.100000,-0.100000)"
fill="#000000" stroke="none">
<path d="M2186 6980 c-109 -55 -132 -122 -113 -337 4 -45 9 -88 12 -95 2 -7 7
-26 9 -43 3 -16 11 -51 17 -77 10 -38 10 -49 -2 -61 -119 -124 -272 -383 -345
-585 -43 -117 -90 -325 -100 -442 -5 -47 -8 -220 -8 -385 1 -335 6 -374 70
-495 74 -142 229 -271 366 -305 23 -6 30 -17 43 -63 86 -305 298 -601 585
-818 186 -141 386 -247 630 -335 l105 -38 -385 -1 c-395 -1 -519 -4 -580 -15
-124 -21 -157 -28 -227 -49 -227 -70 -417 -183 -586 -349 -77 -76 -173 -192
-201 -242 -9 -16 -28 -48 -41 -70 -82 -132 -147 -323 -181 -535 -11 -69 -12
-1449 0 -1494 13 -53 79 -121 132 -135 30 -8 632 -10 2137 -9 l2095 3 44 30
c23 17 54 51 68 75 l25 45 -1 690 c0 380 -3 726 -7 770 -27 304 -182 628 -411
858 -93 93 -117 114 -207 174 -191 128 -375 201 -587 234 -106 16 -153 17
-597 19 l-400 1 80 28 c401 138 748 372 975 655 8 10 20 23 25 30 6 6 31 43
56 81 80 123 146 265 184 397 16 56 16 56 73 74 75 24 189 101 252 172 57 63
121 187 141 272 23 98 19 650 -6 823 -44 304 -201 655 -403 897 -75 90 -218
226 -316 299 -270 203 -572 322 -911 360 -44 5 -393 9 -775 10 -672 0 -696 0
-734 -19z m1519 -406 c428 -72 759 -283 993 -631 47 -69 132 -234 132 -255 0
-8 4 -18 9 -23 22 -22 97 -335 81 -335 -4 0 -20 4 -36 9 -47 16 -101 20 -246
21 -119 0 -138 2 -138 16 0 29 -50 169 -87 243 -41 80 -87 126 -143 141 -20 5
-221 10 -450 11 -310 0 -435 4 -494 15 -281 49 -527 211 -682 449 -49 76 -118
220 -129 273 -2 9 -7 32 -11 50 l-7 33 564 -2 c425 -1 584 -4 644 -15z m-1330
-669 c21 -27 82 -93 136 -146 l97 -95 -29 -62 c-35 -72 -79 -197 -79 -224 0
-16 -11 -18 -132 -18 -137 -1 -188 -5 -247 -20 -34 -9 -55 -5 -47 9 3 4 8 23
11 42 12 73 17 97 41 177 51 170 181 423 204 395 3 -5 23 -30 45 -58z m650
-465 c16 -12 214 -59 290 -69 39 -5 225 -10 414 -10 189 -1 347 -4 351 -6 4
-3 11 -19 14 -37 3 -18 8 -44 11 -58 3 -14 7 -56 10 -94 7 -85 34 -139 93
-181 l44 -30 266 -5 c147 -3 276 -9 287 -14 109 -48 159 -170 110 -273 -38
-80 -102 -123 -187 -123 -112 0 -204 -68 -222 -161 -2 -13 -9 -52 -15 -86 -55
-296 -252 -562 -569 -768 -93 -60 -256 -144 -348 -179 -70 -26 -72 -26 -120
-11 -133 44 -427 209 -536 302 -69 58 -189 186 -233 248 -57 79 -127 219 -150
300 -18 64 -19 68 -36 160 -13 74 -29 104 -73 143 -39 34 -86 50 -161 53 -110
5 -188 81 -198 192 -8 81 47 168 128 203 11 5 140 11 287 14 l266 5 44 30 c59
42 88 98 93 182 6 92 22 166 52 235 24 53 28 57 52 51 14 -3 31 -9 36 -13z
m1463 -2963 c182 -36 335 -105 467 -211 205 -164 334 -384 378 -646 9 -55 13
-229 12 -640 l0 -565 -192 -3 c-179 -2 -192 -1 -189 15 2 10 7 49 11 87 4 38
8 79 10 90 8 54 20 151 30 241 4 32 9 68 11 78 2 11 6 45 9 76 3 31 8 70 10
86 3 17 7 53 10 80 3 28 7 64 10 80 2 17 7 53 10 80 3 28 8 66 10 85 3 19 8
62 11 95 3 33 7 62 9 65 2 3 6 39 10 80 4 41 9 84 11 95 3 11 7 56 9 99 4 71
1 85 -21 125 -26 49 -71 86 -122 100 -44 13 -2937 13 -2985 0 -51 -14 -112
-70 -133 -124 -12 -32 -15 -61 -10 -107 4 -52 44 -384 61 -508 8 -63 24 -194
30 -250 4 -30 8 -66 10 -80 2 -14 7 -50 10 -80 3 -30 8 -66 10 -80 2 -14 7
-50 10 -80 3 -30 8 -66 10 -80 4 -28 11 -87 20 -175 4 -33 9 -68 11 -77 5 -17
-9 -18 -188 -18 l-193 0 0 583 c1 320 4 596 8 612 4 17 9 44 12 61 10 62 48
170 85 246 117 236 319 419 565 513 11 5 25 9 32 11 6 1 28 8 49 14 110 37
158 38 1114 36 514 -2 950 -6 968 -9z m207 -875 c-4 -37 -9 -75 -10 -84 -2 -9
-6 -45 -10 -80 -3 -35 -8 -74 -10 -88 -2 -14 -6 -47 -10 -75 -3 -27 -8 -68
-11 -90 -2 -22 -7 -58 -9 -80 -3 -22 -10 -74 -15 -115 -5 -41 -12 -97 -15
-125 -3 -27 -10 -81 -15 -120 -5 -38 -12 -90 -14 -115 -15 -126 -19 -157 -22
-175 -1 -11 -3 -26 -3 -32 -1 -10 -218 -13 -1051 -13 -993 0 -1050 1 -1051 18
0 9 -2 26 -4 37 -2 11 -7 47 -11 80 -3 33 -8 68 -9 77 -2 9 -7 48 -10 85 -4
37 -9 75 -10 84 -2 9 -6 38 -9 65 -3 27 -19 157 -36 289 -16 132 -32 267 -36
300 -3 33 -8 68 -9 77 -2 9 -7 46 -10 82 l-7 65 1202 0 1202 0 -7 -67z"/>
<path d="M3420 1239 c-56 -25 -77 -44 -101 -90 -70 -138 28 -298 184 -299 83
0 169 63 194 143 49 160 -125 316 -277 246z"/>
</g>
</svg>
