<?xml version="1.0" standalone="no"?>
<!DOCTYPE svg PUBLIC "-//W3C//DTD SVG 20010904//EN"
 "http://www.w3.org/TR/2001/REC-SVG-20010904/DTD/svg10.dtd">
<svg version="1.0" xmlns="http://www.w3.org/2000/svg"
 width="238.000000pt" height="226.000000pt" viewBox="0 0 238.000000 226.000000"
 preserveAspectRatio="xMidYMid meet">
<metadata>
Created by potrace 1.16, written by Peter Selinger 2001-2019
</metadata>
<g transform="translate(0.000000,226.000000) scale(0.100000,-0.100000)"
fill="#000000" stroke="none">
<path d="M735 2015 c-445 -215 -429 -206 -448 -237 -20 -30 -210 -861 -209
-914 0 -23 6 -53 14 -67 24 -47 541 -678 576 -705 l35 -27 474 -3 c408 -2 477
0 502 13 31 15 566 666 595 723 9 17 16 50 16 74 -1 24 -45 231 -99 461 -96
410 -98 419 -132 452 -24 23 -157 92 -435 224 -372 178 -405 191 -455 190 -49
0 -90 -18 -434 -184z m480 -101 c13 -14 15 -31 10 -108 -3 -50 -2 -96 2 -102
4 -6 40 -18 78 -27 92 -23 197 -73 265 -128 37 -30 62 -43 78 -41 12 2 49 28
81 58 62 57 83 64 113 37 36 -33 21 -62 -64 -116 -84 -54 -87 -64 -43 -158 42
-89 69 -219 62 -295 -5 -50 -4 -52 26 -68 18 -8 63 -20 100 -25 79 -11 99 -24
95 -59 -5 -44 -28 -48 -118 -21 -45 14 -92 24 -104 22 -16 -3 -31 -25 -55 -79
-36 -79 -140 -203 -205 -243 -43 -27 -41 -61 7 -140 44 -70 48 -107 12 -123
-39 -18 -69 10 -94 85 -12 35 -32 73 -44 85 -22 20 -23 20 -92 2 -89 -24 -200
-24 -289 -1 l-70 18 -22 -24 c-13 -14 -31 -48 -40 -76 -18 -56 -49 -97 -72
-97 -23 0 -52 30 -52 53 0 11 11 34 23 51 33 42 49 75 57 113 7 27 5 33 -12
39 -11 3 -55 41 -98 83 -61 61 -86 94 -116 159 -47 98 -60 104 -163 72 -82
-26 -118 -22 -127 16 -10 41 17 60 102 73 41 6 85 18 98 26 22 14 23 21 19 78
-6 82 18 192 62 286 33 69 34 76 20 97 -8 13 -36 35 -62 50 -67 38 -83 54 -83
80 0 27 25 54 50 54 10 0 47 -27 81 -60 69 -67 93 -73 129 -35 63 67 247 155
325 155 24 0 33 6 43 30 13 28 12 57 -4 141 -6 30 28 79 56 79 10 0 26 -7 35
-16z"/>
<path d="M1039 1531 c-68 -22 -151 -66 -179 -96 l-22 -23 107 -76 c59 -42 111
-76 116 -76 19 0 39 35 39 69 0 21 3 79 6 129 4 53 3 92 -2 91 -5 0 -34 -8
-65 -18z"/>
<path d="M1246 1421 c4 -69 11 -132 17 -138 19 -25 51 -12 149 58 98 70 99 71
81 91 -39 44 -125 87 -216 107 l-37 9 6 -127z"/>
<path d="M732 1263 c-31 -73 -42 -122 -42 -186 0 -51 2 -58 18 -53 9 3 60 17
112 32 52 14 103 31 113 36 37 19 20 52 -74 134 -50 43 -94 80 -99 82 -4 1
-16 -19 -28 -45z"/>
<path d="M1492 1222 c-92 -87 -107 -113 -74 -130 41 -22 237 -71 246 -62 23
23 -38 268 -69 276 -5 2 -52 -36 -103 -84z"/>
<path d="M1120 1110 c-33 -46 -21 -96 26 -116 32 -14 38 -13 67 3 71 42 46
141 -35 142 -30 1 -41 -5 -58 -29z"/>
<path d="M1368 929 c-10 -5 -18 -18 -18 -28 0 -24 90 -241 100 -241 18 0 107
90 142 144 57 89 56 90 -69 110 -60 10 -115 19 -123 21 -8 2 -23 0 -32 -6z"/>
<path d="M823 911 c-51 -9 -95 -20 -99 -23 -8 -9 40 -96 77 -141 16 -20 46
-49 67 -66 l39 -30 47 118 c27 64 47 126 45 137 -5 26 -57 27 -176 5z"/>
<path d="M1091 720 c-34 -61 -61 -115 -61 -120 0 -4 32 -14 71 -20 55 -10 88
-9 150 0 l79 12 -47 87 c-59 110 -89 151 -112 151 -13 0 -37 -32 -80 -110z"/>
</g>
</svg>
