<svg id="Layer_1" enable-background="new 0 0 512 512" height="512" viewBox="0 0 512 512" width="512" xmlns="http://www.w3.org/2000/svg"><g><g><g><path d="m435.484 504.5h-358.96c-12.64 0-22.56-10.83-21.43-23.41l2.85-31.86 1.55-17.35c2.73-30.55 24.87-55.84 54.8-62.62l27.9-6.32 31.77-7.19 36.85-8.34 92.08.41 94.81 21.45c29.93 6.77 52.08 32.07 54.81 62.62l1.55 17.34 2.85 31.86c1.13 12.58-8.79 23.41-21.43 23.41z" fill="#9ca9b7"/><path d="m456.906 481.09c1.13 12.58-8.79 23.41-21.43 23.41h-30c12.64 0 22.56-10.83 21.43-23.41l-4.4-49.2c-2.73-30.55-12.18-55.04-67.79-72.34l42.98 9.72c29.93 6.77 52.08 32.07 54.81 62.62z" fill="#75818e"/></g><path d="m140.344 462.42v42.08h-63.82c-12.64 0-22.56-10.83-21.43-23.41l2.85-31.86z" fill="#ffd6ae"/><path d="m435.484 504.5h-63.82v-42.08l52.81-8.45 29.59-4.74 2.85 31.86c1.13 12.58-8.79 23.41-21.43 23.41z" fill="#ffd6ae"/><path d="m435.484 504.5h-30.01c12.64 0 22.56-10.83 21.43-23.41l-2.43-27.12 29.59-4.74 2.85 31.86c1.13 12.58-8.79 23.41-21.43 23.41z" fill="#ffb185"/><g><path d="m302.728 347.181.16.65c-2.64 2.27-5.39 4.56-8.25 6.87-10.6 8.62-23.87 13.32-37.54 13.29-13.69.03-26.97-4.68-37.59-13.32-3.02-2.44-5.92-4.86-8.7-7.26 2.46-9.33 3.63-18.94 3.47-28.54-.07-4.62-.44-9.24-1.13-13.83l-2.34-15.67h92.08l-2.38 15.93c-.71 4.73-1.09 9.5-1.14 14.27-.11 9.29 1.01 18.57 3.36 27.61z" fill="#ffd6ae"/><path d="m302.888 289.371-2.38 15.93c-.71 4.73-1.09 9.5-1.14 14.27-1.49 1.25-3.02 2.5-4.58 3.76-10.6 8.63-23.87 13.32-37.54 13.3-13.69.02-26.97-4.68-37.59-13.32-1.84-1.49-3.63-2.97-5.38-4.44-.07-4.62-.44-9.24-1.13-13.83l-2.34-15.67z" fill="#ffb185"/><path d="m339.32 162.718-82.158-40-82.486 40c2.242 21.848 2.673 49.006 1.264 63.374-.173 1.976-.252 4.04-.252 6.095 0 19.395 16.488 42.569 48.993 68.868 9.13 7.43 20.551 11.477 32.324 11.455 11.76.024 23.167-4.015 32.288-11.431 32.527-26.319 49.014-49.494 49.014-68.89 0-2.056-.079-4.119-.252-6.145-1.407-14.353-.976-41.493 1.265-63.326z" fill="#ffd6ae"/><g fill="#ffb185"><path d="m174.972 215.559c-13.637 0-24.739-10.967-24.907-24.603-.17-13.875 11.031-25.214 24.907-25.214z"/><path d="m339.022 215.559c13.637 0 24.739-10.967 24.907-24.603.17-13.875-11.031-25.214-24.907-25.214z"/></g><path d="m350.778 74.691c5.82-6.23 9.38-14.6 9.38-23.8 0-19.26-15.62-34.88-34.88-34.88-7.5 0-14.44 2.36-20.12 6.38 0 0 0-.01-.01-.02-4.54-8.83-13.75-14.87-24.37-14.87-11.04 0-20.56 6.54-24.88 15.96-6.22-9.6-17.02-15.96-29.31-15.96-16.11 0-29.66 10.91-33.68 25.74-3.31-1.42-6.97-2.22-10.81-2.22-15.12 0-27.38 12.26-27.38 27.38 0 7 2.63 13.38 6.94 18.22-15.78 7.53-26.69 23.63-26.69 42.29 0 25.86 20.97 46.83 46.84 46.83 19.92 0 36.95-12.45 43.71-29.99 8.48 6.4 19.04 10.19 30.48 10.19 12.58 0 24.08-4.58 32.94-12.17 4.97 13.96 16.37 24.86 30.63 29.14 4.28 1.3 8.81 1.99 13.5 1.99 25.87 0 46.83-20.97 46.83-46.84 0-19.6-12.04-36.38-29.12-43.37z" fill="#49525e"/><path d="m379.898 118.061c0 25.87-20.96 46.84-46.83 46.84-4.69 0-9.22-.69-13.5-1.99 30.29-8.67 35.33-34.7 35.33-44.85 0-8.91-5.33-16.85-13.58-20.22-7.61-3.11-13.2-9.76-14.96-17.79s.53-16.41 6.14-22.42c1.21-1.3 2.66-3.52 2.66-6.74 0-5.45-.29-18.75-30-28.5 5.68-4.02 12.62-6.38 20.12-6.38 19.26 0 34.88 15.62 34.88 34.88 0 9.2-3.56 17.57-9.38 23.8 17.08 6.99 29.12 23.77 29.12 43.37z" fill="#31353a"/></g></g><path d="m249.375 204.25c0 13.06-10.59 23.64-23.65 23.64-3.9 0-7.58-.95-10.82-2.62-7.62-3.92-12.82-11.86-12.82-21.02s5.2-17.1 12.82-21.02c3.24-1.68 6.92-2.63 10.82-2.63 13.06 0 23.65 10.59 23.65 23.65z" fill="#e6f3ff"/><path d="m249.375 204.25c0 13.06-10.59 23.64-23.65 23.64-3.9 0-7.58-.95-10.82-2.62 7.62-3.92 12.82-11.86 12.82-21.02s-5.2-17.1-12.82-21.02c3.24-1.68 6.92-2.63 10.82-2.63 13.06 0 23.65 10.59 23.65 23.65z" fill="#d6dced"/><path d="m312.247 204.25c0 13.06-10.59 23.64-23.65 23.64-3.9 0-7.58-.95-10.82-2.62-7.62-3.92-12.82-11.86-12.82-21.02s5.2-17.1 12.82-21.02c3.24-1.68 6.92-2.63 10.82-2.63 13.06 0 23.65 10.59 23.65 23.65z" fill="#e6f3ff"/><path d="m312.247 204.25c0 13.06-10.59 23.64-23.65 23.64-3.9 0-7.58-.95-10.82-2.62 7.62-3.92 12.82-11.86 12.82-21.02s-5.2-17.1-12.82-21.02c3.24-1.68 6.92-2.63 10.82-2.63 13.06 0 23.65 10.59 23.65 23.65z" fill="#d6dced"/></g><g><path d="m464.383 480.421-4.402-49.201c-3.034-33.913-27.4-61.749-60.631-69.266l-90.253-20.417c-2.524-11.568-2.922-23.366-1.165-35.131l1.981-13.265c24.11-22.499 35.896-42.549 35.896-60.954 0-2.336-.094-4.618-.288-6.878-.088-.895-.167-1.846-.24-2.841 14.706-2.916 25.957-15.882 26.148-31.395.107-8.73-3.213-16.96-9.349-23.172-.836-.847-1.714-1.637-2.623-2.378 7.155-3.978 13.436-9.554 18.246-16.471 2.365-3.4 1.525-8.074-1.875-10.439-3.399-2.365-8.074-1.526-10.439 1.875-7.362 10.586-19.444 16.906-32.318 16.906-16.605 0-31.501-10.505-37.066-26.14-.829-2.327-2.749-4.098-5.136-4.732-2.387-.635-4.934-.055-6.81 1.551-7.804 6.686-17.77 10.367-28.061 10.367-9.458 0-18.437-3.002-25.964-8.681-1.879-1.419-4.314-1.871-6.577-1.225s-4.091 2.318-4.938 4.515c-5.808 15.066-20.563 25.189-36.715 25.189-21.688 0-39.332-17.645-39.332-39.332 0-15.08 8.8-29.022 22.419-35.521 2.13-1.016 3.657-2.976 4.123-5.289s-.185-4.712-1.756-6.473c-3.25-3.642-5.039-8.339-5.039-13.226 0-10.96 8.917-19.876 19.876-19.876 2.729 0 5.371.541 7.851 1.609 1.998.861 4.27.812 6.228-.135 1.958-.946 3.409-2.695 3.978-4.794 3.221-11.892 14.091-20.201 26.435-20.201 9.332 0 17.934 4.686 23.012 12.535 1.486 2.297 4.109 3.594 6.835 3.406 2.729-.196 5.135-1.863 6.277-4.35 3.235-7.041 10.329-11.591 18.074-11.591 7.492 0 14.274 4.146 17.699 10.818.992 1.934 2.774 3.342 4.886 3.859 2.113.517 4.343.094 6.117-1.161 4.632-3.275 10.091-5.007 15.789-5.007 15.099 0 27.382 12.284 27.382 27.383 0 6.963-2.615 13.598-7.363 18.683-1.683 1.802-2.372 4.316-1.844 6.725.528 2.408 2.206 4.403 4.489 5.336 12.715 5.196 21.912 16.832 24.002 30.368.632 4.094 4.463 6.9 8.557 6.268 4.093-.632 6.9-4.463 6.268-8.557-2.405-15.579-11.615-29.335-24.769-37.645 3.689-6.384 5.661-13.658 5.661-21.178 0-23.37-19.013-42.383-42.382-42.383-6.218 0-12.257 1.335-17.794 3.903-6.542-7.796-16.223-12.412-26.698-12.412-9.818 0-19.041 4.168-25.542 11.141-7.721-7.101-17.873-11.141-28.656-11.141-16.499 0-31.298 9.597-38.238 24.081-2.048-.371-4.136-.558-6.252-.558-19.23 0-34.876 15.646-34.876 34.876 0 5.53 1.307 10.922 3.765 15.769-14.506 10.044-23.511 26.81-23.511 44.74 0 19.913 10.774 37.347 26.793 46.808-.812.677-1.596 1.396-2.349 2.158-6.136 6.212-9.457 14.441-9.35 23.173.19 15.514 11.445 28.482 26.154 31.395-.076 1.049-.158 2.053-.251 2.994-.187 2.127-.281 4.398-.281 6.751 0 18.321 11.677 38.268 35.548 60.626l1.991 13.333c1.75 11.717 1.366 23.462-1.128 34.978l-91.966 20.824c-33.223 7.521-57.582 35.355-60.615 69.261l-4.403 49.213c-.723 8.083 2.004 16.154 7.482 22.145 5.483 5.996 13.29 9.435 21.417 9.435h87.368c4.142 0 7.5-3.357 7.5-7.5s-3.358-7.5-7.5-7.5h-16.046v-58.568c0-4.143-3.358-7.5-7.5-7.5s-7.5 3.357-7.5 7.5v15.191l-66.807-10.69.929-10.389c2.451-27.396 22.137-49.889 48.987-55.968l92.855-21.025c1.943 1.638 3.942 3.291 5.977 4.939 11.892 9.677 26.875 15.001 42.176 15.001h.264c15.309 0 30.274-5.314 42.139-14.962 1.885-1.526 3.733-3.052 5.532-4.564l91.149 20.619c26.857 6.074 46.549 28.567 49 55.971l.928 10.377-66.807 10.69v-15.191c0-4.143-3.358-7.5-7.5-7.5s-7.5 3.357-7.5 7.5v58.567h-165.286c-4.142 0-7.5 3.357-7.5 7.5s3.358 7.5 7.5 7.5h236.609c8.127 0 15.934-3.438 21.417-9.435 5.478-5.99 8.205-14.061 7.482-22.144zm-331.545-11.606v28.185h-56.322c-3.985 0-7.66-1.618-10.348-4.558-2.683-2.933-3.965-6.728-3.611-10.686l2.133-23.847zm211.923-261.73c-.057-10.073.311-21.636 1.067-32.438 2.063.876 3.956 2.152 5.58 3.796 3.296 3.337 5.08 7.757 5.022 12.447-.091 7.473-4.968 13.829-11.669 16.195zm-116.202-60.503c8.388 4.509 17.727 6.859 27.44 6.859 10.61 0 20.965-2.905 29.956-8.307 9.223 16.02 26.196 26.481 44.998 27.215-.376 5.121-.668 10.393-.869 15.621l-12.25 5.526c-4.387-11.895-15.836-20.4-29.235-20.4-14.59 0-26.864 10.085-30.23 23.648h-2.411c-3.366-13.564-15.64-23.648-30.23-23.648-13.402 0-24.854 8.509-29.238 20.408l-12.58-5.662c-.19-4.891-.457-9.821-.799-14.626 18.756-.457 35.993-10.763 45.448-26.634zm76.188 57.664c0 8.904-7.244 16.148-16.148 16.148s-16.148-7.244-16.148-16.148 7.244-16.148 16.148-16.148 16.148 7.244 16.148 16.148zm-62.87 0c0 8.904-7.244 16.148-16.148 16.148s-16.148-7.244-16.148-16.148 7.244-16.148 16.148-16.148 16.148 7.244 16.148 16.148zm-84.31-13.383c-.058-4.69 1.726-9.111 5.022-12.448 1.624-1.644 3.518-2.92 5.58-3.796.756 10.793 1.125 22.35 1.069 32.439-6.702-2.366-11.58-8.722-11.671-16.195zm25.623 41.324c0-1.917.075-3.747.217-5.363.58-5.918.856-13.742.846-22.377l10.741 4.834c2.414 14.789 15.275 26.114 30.735 26.114 14.59 0 26.864-10.085 30.23-23.648h2.411c3.366 13.564 15.64 23.648 30.23 23.648 15.462 0 28.323-11.327 30.736-26.118l10.412-4.697c-.008 8.543.266 16.27.838 22.102.149 1.742.225 3.595.225 5.506 0 16.782-15.987 38.588-46.246 63.07-7.736 6.29-17.481 9.751-27.481 9.751-.058-.001-.116-.001-.172 0-9.987 0-19.749-3.469-27.51-9.786-30.233-24.458-46.212-46.256-46.212-63.036zm106.719 116.693c-9.212 7.49-20.816 11.611-32.719 11.611-.068.001-.137.001-.206 0-11.891 0-23.515-4.131-32.753-11.647-1.718-1.391-3.406-2.781-5.049-4.159 2.681-12.168 3.306-24.56 1.879-36.948 10.229 7.919 22.892 12.273 35.821 12.272.077.001.155.001.23 0 12.808 0 25.335-4.257 35.487-12.002-1.431 12.432-.794 24.873 1.914 37.088-1.5 1.253-3.038 2.517-4.604 3.785zm155.923 143.562c-2.688 2.939-6.362 4.558-10.348 4.558h-56.322v-28.185l68.147-10.905 2.133 23.847c.355 3.958-.928 7.753-3.61 10.685z"/><path d="m236.814 271.749h40.372c4.142 0 7.5-3.357 7.5-7.5s-3.358-7.5-7.5-7.5h-40.372c-4.142 0-7.5 3.357-7.5 7.5s3.358 7.5 7.5 7.5z"/><path d="m224.206 473.778c1.919 0 3.839-.732 5.303-2.196 2.929-2.93 2.929-7.678 0-10.607l-26.333-26.332 26.333-26.333c2.929-2.93 2.929-7.678 0-10.607-2.929-2.928-7.678-2.928-10.606 0l-31.636 31.637c-1.407 1.407-2.197 3.314-2.197 5.304s.79 3.896 2.197 5.304l31.636 31.636c1.464 1.462 3.383 2.194 5.303 2.194z"/><path d="m284.489 471.582c1.464 1.464 3.384 2.196 5.303 2.196s3.839-.732 5.303-2.196l31.636-31.636c1.407-1.407 2.197-3.314 2.197-5.304s-.79-3.896-2.197-5.304l-31.636-31.637c-2.929-2.928-7.678-2.928-10.606 0-2.929 2.93-2.929 7.678 0 10.607l26.333 26.333-26.333 26.332c-2.93 2.931-2.93 7.679 0 10.609z"/><path d="m250.545 473.78c3.457 0 6.565-2.404 7.324-5.92l13.65-63.272c.874-4.05-1.701-8.04-5.75-8.913-4.047-.874-8.039 1.7-8.913 5.749l-13.65 63.272c-.874 4.05 1.701 8.04 5.75 8.913.533.116 1.065.171 1.589.171z"/></g></svg>